<svg width="28" height="32" viewBox="0 0 28 32" fill="none" xmlns="http://www.w3.org/2000/svg">
    <style>
    path {
        fill: #A5A5A5;
        stroke: #A5A5A5;
        stroke-width: 2;
    }
    @media (prefers-color-scheme: dark) {
        path { 
            <!-- fill: #F5F5F5;
            stroke: #F5F5F5;  -->
            fill: red;
            stroke: red; 
        }
    }
    </style>
    <path d="M1.20654 30V31H2.20654H12.4369C14.5252 31 16.4586 30.6587 18.2247 29.9611C20.0001 29.265 21.5338 28.2571 22.8122 26.9356C24.0904 25.6143 25.0708 24.0228 25.7608 22.1779C26.4557 20.3202 26.7938 18.253 26.7938 15.9901C26.7938 13.7396 26.4555 11.6792 25.7608 9.8221C25.0708 7.97724 24.0904 6.38571 22.8122 5.06443C21.5339 3.743 20.0002 2.73514 18.225 2.03904C16.4588 1.34134 14.5253 1 12.4369 1H2.20654H1.20654V2V30ZM21.9422 11.0993C22.4384 12.5033 22.6963 14.1289 22.6963 15.9901C22.6963 17.8654 22.4382 19.4973 21.9422 20.9007C21.4417 22.3165 20.744 23.4856 19.86 24.4284C18.9739 25.3737 17.9101 26.0965 16.6564 26.598C15.403 27.0994 14.0007 27.3576 12.4369 27.3576H5.2447V4.6424H12.4369C14.0007 4.6424 15.403 4.90062 16.6564 5.40197C17.9101 5.90345 18.9739 6.62633 19.86 7.57157C20.744 8.51441 21.4417 9.68352 21.9422 11.0993Z"/>
</svg>
