<svg width="17" height="16" viewBox="0 0 17 16" xmlns="http://www.w3.org/2000/svg">
<path d="M8.14436 3.8978C5.8742 3.8978 4.04308 5.72933 4.04308 8C4.04308 10.2707 5.8742 12.1022 8.14436 12.1022C10.4145 12.1022 12.2456 10.2707 12.2456 8C12.2456 5.72933 10.4145 3.8978 8.14436 3.8978ZM8.14436 10.667C6.67732 10.667 5.47799 9.47094 5.47799 8C5.47799 6.52906 6.67376 5.33304 8.14436 5.33304C9.61497 5.33304 10.8107 6.52906 10.8107 8C10.8107 9.47094 9.6114 10.667 8.14436 10.667ZM13.37 3.73C13.37 4.26197 12.9417 4.68682 12.4134 4.68682C11.8816 4.68682 11.4568 4.2584 11.4568 3.73C11.4568 3.20161 11.8851 2.77318 12.4134 2.77318C12.9417 2.77318 13.37 3.20161 13.37 3.73ZM16.0864 4.7011C16.0257 3.41939 15.733 2.28406 14.7942 1.34866C13.859 0.413254 12.724 0.120495 11.4425 0.0562312C10.1218 -0.0187437 6.16333 -0.0187437 4.84263 0.0562312C3.56478 0.116925 2.42969 0.409684 1.49093 1.34509C0.552171 2.28049 0.263047 3.41582 0.198797 4.69753C0.123839 6.01852 0.123839 9.97791 0.198797 11.2989C0.259477 12.5806 0.552171 13.7159 1.49093 14.6513C2.42969 15.5867 3.56121 15.8795 4.84263 15.9438C6.16333 16.0187 10.1218 16.0187 11.4425 15.9438C12.724 15.8831 13.859 15.5903 14.7942 14.6513C15.7294 13.7159 16.0221 12.5806 16.0864 11.2989C16.1613 9.97791 16.1613 6.02209 16.0864 4.7011ZM14.3802 12.7163C14.1018 13.416 13.5628 13.9551 12.8596 14.2372C11.8066 14.6549 9.308 14.5585 8.14436 14.5585C6.98073 14.5585 4.47855 14.6513 3.42914 14.2372C2.72953 13.9587 2.19054 13.4196 1.90856 12.7163C1.49093 11.6631 1.58731 9.1639 1.58731 8C1.58731 6.8361 1.4945 4.33337 1.90856 3.28372C2.18697 2.58396 2.72596 2.04485 3.42914 1.7628C4.48212 1.34509 6.98073 1.44148 8.14436 1.44148C9.308 1.44148 11.8102 1.34866 12.8596 1.7628C13.5592 2.04128 14.0982 2.58039 14.3802 3.28372C14.7978 4.33694 14.7014 6.8361 14.7014 8C14.7014 9.1639 14.7978 11.6666 14.3802 12.7163Z"/>
</svg>
