<svg width="17" height="16" viewBox="0 0 17 16" fill="none" xmlns="http://www.w3.org/2000/svg">
<path d="M3.86659 16H0.549442V5.31762H3.86659V16ZM2.20623 3.86044C1.14551 3.86044 0.285156 2.98185 0.285156 1.92111C0.285156 1.4116 0.487554 0.92296 0.847825 0.562681C1.2081 0.202403 1.69673 0 2.20623 0C2.71573 0 3.20436 0.202403 3.56463 0.562681C3.9249 0.92296 4.1273 1.4116 4.1273 1.92111C4.1273 2.98185 3.26659 3.86044 2.20623 3.86044ZM16.2816 16H12.9716V10.7999C12.9716 9.56057 12.9466 7.97125 11.2469 7.97125C9.5223 7.97125 9.25801 9.31771 9.25801 10.7106V16H5.94444V5.31762H9.12587V6.77479H9.1723C9.61516 5.93549 10.6969 5.04976 12.3109 5.04976C15.668 5.04976 16.2852 7.26052 16.2852 10.132V16H16.2816Z" fill="#0F0F0F"/>
</svg>
