<svg width="17" height="16" viewBox="0 0 17 16" fill="none" xmlns="http://www.w3.org/2000/svg">
<path d="M11.4614 8L16.0101 3.45136C16.5683 2.89318 16.5683 1.98818 16.0101 1.42955L14.9992 0.418636C14.441 -0.139545 13.536 -0.139545 12.9773 0.418636L8.42871 4.96727L3.88007 0.418636C3.32189 -0.139545 2.41689 -0.139545 1.85826 0.418636L0.847347 1.42955C0.289165 1.98773 0.289165 2.89273 0.847347 3.45136L5.39598 8L0.847347 12.5486C0.289165 13.1068 0.289165 14.0118 0.847347 14.5705L1.85826 15.5814C2.41644 16.1395 3.32189 16.1395 3.88007 15.5814L8.42871 11.0327L12.9773 15.5814C13.5355 16.1395 14.441 16.1395 14.9992 15.5814L16.0101 14.5705C16.5683 14.0123 16.5683 13.1073 16.0101 12.5486L11.4614 8Z" fill="#0F0F0F"/>
</svg>
