<svg width="38" height="32" viewBox="0 0 38 32" fill="none" xmlns="http://www.w3.org/2000/svg">
<path d="M37.2771 7.39167C37.1119 10.9933 34.6007 15.9249 29.7269 22.1864C24.6962 28.7288 20.442 32 16.956 32C14.8 32 12.9744 30.0092 11.4792 26.0276C8.57152 15.3549 7.33243 9.10162 4.92859 9.10162C4.64773 9.10162 3.68124 9.68812 2.02086 10.8446L0.286133 8.59772C4.5486 4.85567 8.62108 0.692327 11.1736 0.461031C14.0566 0.18017 15.8243 2.15445 16.4934 6.36736C18.8642 21.3603 19.9133 23.6238 24.2254 16.8335C25.7701 14.3884 26.6044 12.5298 26.7201 11.2494C27.1166 7.45776 23.7628 7.71384 21.4911 8.68859C23.3084 2.7327 26.7861 -0.158514 31.916 0.00669762C35.6993 0.105825 37.4919 2.57574 37.2771 7.39167Z" fill="#0F0F0F"/>
</svg>
