<svg width="20" height="16" viewBox="0 0 20 16" fill="none" xmlns="http://www.w3.org/2000/svg">
<path d="M18.9955 3.69584C18.9129 5.49665 17.6573 7.96244 15.2204 11.0932C12.705 14.3644 10.5779 16 8.83495 16C7.75694 16 6.84414 15.0046 6.09656 13.0138C4.64269 7.67745 4.02315 4.55081 2.82123 4.55081C2.6808 4.55081 2.19755 4.84406 1.36736 5.4223L0.5 4.29886C2.63123 2.42783 4.66747 0.346164 5.94374 0.230515C7.38521 0.0900851 8.26909 1.07723 8.60365 3.18368C9.78905 10.6802 10.3136 11.8119 12.4696 8.41677C13.242 7.1942 13.6591 6.26488 13.717 5.62469C13.9152 3.72888 12.2383 3.85692 11.1025 4.34429C12.0111 1.36635 13.75 -0.0792572 16.3149 0.00334881C18.2066 0.0529124 19.1029 1.28787 18.9955 3.69584Z" fill="#0F0F0F"/>
</svg>
